HIERARCHY
ROOT Hips
{
	OFFSET -3.958830 18.904000 13.208200
	CHANNELS 6 Xposition Yposition Zposition Zrotation Yrotation Xrotation 
	JOINT LHipJoint
	{
		OFFSET 0.000000 0.000000 0.000000
		CHANNELS 3 Zrotation Yrotation Xrotation
		JOINT LeftUpLeg
		{
			OFFSET 1.800000 -1.400000 0.085000
			CHANNELS 3 Zrotation Yrotation Xrotation
			JOINT LeftLeg
			{
				OFFSET 2.215000 -6.000000 0.000000
				CHANNELS 3 Zrotation Yrotation Xrotation
				JOINT LeftFoot
				{
					OFFSET 2.500000 -6.900000 0.000000
					CHANNELS 3 Zrotation Yrotation Xrotation
					JOINT LeftToeBase
					{
						OFFSET 0.200000 -0.500000 1.950000
						CHANNELS 3 Zrotation Yrotation Xrotation
						End Site
						{
							OFFSET 0.000000 0.000000 0.000000
						}
					}
				}
			}
		}
	}
	JOINT RHipJoint
	{
		OFFSET 0.000000 0.000000 0.000000
		CHANNELS 3 Zrotation Yrotation Xrotation
		JOINT RightUpLeg
		{
			OFFSET -1.800000 -1.400000 0.085000
			CHANNELS 3 Zrotation Yrotation Xrotation
			JOINT RightLeg
			{
				OFFSET -2.215000 -6.000000 0.000000
				CHANNELS 3 Zrotation Yrotation Xrotation
				JOINT RightFoot
				{
					OFFSET -2.500000 -6.900000 0.000000
					CHANNELS 3 Zrotation Yrotation Xrotation
					JOINT RightToeBase
					{
						OFFSET -0.200000 -0.500000 1.950000
						CHANNELS 3 Zrotation Yrotation Xrotation
						End Site
						{
							OFFSET 0.000000 0.000000 0.000000
						}
					}
				}
			}
		}
	}
	JOINT LowerBack
	{
		OFFSET 0.000000 0.000000 0.000000
		CHANNELS 3 Zrotation Yrotation Xrotation
		JOINT Spine
		{
			OFFSET -0.087000 1.940000 -0.288900
			CHANNELS 3 Zrotation Yrotation Xrotation
			JOINT Spine1
			{
				OFFSET 0.000000 1.950000 0.060000
				CHANNELS 3 Zrotation Yrotation Xrotation
				JOINT Neck
				{
					OFFSET 0.000000 0.000000 0.000000
					CHANNELS 3 Zrotation Yrotation Xrotation
					JOINT Neck1
					{
						OFFSET 0.000000 1.600000 0.340000
						CHANNELS 3 Zrotation Yrotation Xrotation
						JOINT Head
						{
							OFFSET 0.000000 1.667000 -0.240000
							CHANNELS 3 Zrotation Yrotation Xrotation
							End Site
							{
								OFFSET 0.000000 0.000000 0.000000
							}
						}
					}
				}
				JOINT LeftShoulder
				{
					OFFSET 0.000000 0.000000 0.000000
					CHANNELS 3 Zrotation Yrotation Xrotation
					JOINT LeftArm
					{
						OFFSET 2.700000 1.550000 -0.730000
						CHANNELS 3 Zrotation Yrotation Xrotation
						JOINT LeftForeArm
						{
							OFFSET 5.450000 0.000000 0.000000
							CHANNELS 3 Zrotation Yrotation Xrotation
							JOINT LeftHand
							{
								OFFSET 3.450000 0.000000 0.000000
								CHANNELS 3 Zrotation Yrotation Xrotation
								JOINT LeftHandIndex1
								{
									OFFSET 0.750000 0.000000 0.000000
									CHANNELS 3 Zrotation Yrotation Xrotation
									End Site
									{
										OFFSET 0.000000 0.000000 0.000000
									}
								}
							}
						}
					}
				}
				JOINT RightShoulder
				{
					OFFSET 0.000000 0.000000 0.000000
					CHANNELS 3 Zrotation Yrotation Xrotation
					JOINT RightArm
					{
						OFFSET -2.700000 1.550000 -0.730000
						CHANNELS 3 Zrotation Yrotation Xrotation
						JOINT RightForeArm
						{
							OFFSET -5.450000 0.000000 0.000000
							CHANNELS 3 Zrotation Yrotation Xrotation
							JOINT RightHand
							{
								OFFSET -3.450000 0.000000 0.000000
								CHANNELS 3 Zrotation Yrotation Xrotation
								JOINT RightHandIndex1
								{
									OFFSET -0.750000 0.000000 0.000000
									CHANNELS 3 Zrotation Yrotation Xrotation
									End Site
									{
										OFFSET 0.000000 0.000000 0.000000
									}
								}
							}
						}
					}
				}
			}
		}
	}
}
MOTION
Frames: 13
Frame Time: 0.016667
0.660660 16.704300 4.514630 -0.916075 9.732435 -6.957330 -15.268514 14.010643 3.476844 2.166021 1.633418 5.629620 -5.941828 5.736957 4.337990 0.509582 4.884057 3.185920 -0.627370 -0.875590 -0.528060 18.058968 -10.334030 3.239621 0.018955 2.187828 -22.515376 2.762524 -2.593994 4.565618 0.404707 -1.783397 3.969250 -0.549250 0.532280 0.039800 -3.372236 -3.297691 -8.203145 8.436996 -9.870302 29.195279 -8.201097 -4.003551 -9.062641 3.828365 -4.682087 -17.981266 -12.485606 3.421938 39.251898 -1.189910 1.197420 17.219850 23.126899 -6.944518 6.768154 44.763708 11.527839 -1.959843 116.447874 55.840146 78.929158 -4.666293 2.631061 0.113750 0.258020 -0.299120 0.043780 -29.967833 14.003711 11.441541 -39.581040 -19.728543 -3.112067 -130.403783 -60.541622 103.847526 3.584816 -0.462337 -0.276830 0.073920 0.367520 0.052670 
0.666080 16.694620 4.581010 -0.694828 10.217499 -5.158343 -15.283502 14.058594 3.511968 2.006651 1.568759 4.694548 -6.146236 5.604244 3.491987 0.514090 4.774320 3.220675 -0.655630 -0.906290 -0.555510 18.038940 -10.263177 3.264852 0.052224 2.288605 -23.392220 2.530175 -2.518874 4.450652 0.423118 -1.691030 4.007286 -0.580550 0.534990 0.025940 -3.338083 -3.513054 -8.253540 8.788164 -10.415787 26.844492 -7.997855 -4.546931 -11.063937 4.113790 -5.551245 -18.574941 -14.709199 4.023841 39.721700 -0.889490 1.346940 18.662020 22.206854 -7.192001 6.775150 43.001132 10.980827 -2.200452 121.660395 54.469053 84.247707 -4.634162 2.628177 0.117520 0.245590 -0.301090 0.042400 -29.252243 14.917364 11.438208 -39.249602 -19.521988 -3.102056 -131.416170 -55.264765 99.095379 3.613363 -0.627716 -0.276240 0.069670 0.377440 0.062000 
0.669120 16.679240 4.628580 -0.607947 10.989289 -5.060284 -15.258250 14.037203 3.504709 2.070587 1.588543 5.025880 -5.661934 5.557895 3.605179 0.511691 4.755457 3.219836 -0.643620 -0.891020 -0.551060 18.052237 -10.345910 3.253955 -0.302522 2.090182 -22.773939 2.552000 -2.553299 4.282689 0.407034 -1.743995 3.985799 -0.573820 0.524900 0.023980 -3.416134 -3.362876 -8.272079 9.506204 -10.595207 25.262521 -9.000565 -4.429024 -10.856680 4.241808 -5.793095 -18.556868 -15.419526 4.098397 41.019501 -0.925750 1.231360 19.131610 20.250866 -8.042103 6.443884 42.863364 9.913616 -2.191801 121.444735 51.250687 80.539155 -4.570762 2.745835 0.119780 0.237440 -0.293760 0.044240 -27.645458 15.924725 11.398963 -40.841979 -18.908511 -2.325906 -132.804420 -50.387981 96.250509 3.573451 -0.687456 -0.269310 0.068390 0.373390 0.063790 
0.671910 16.655770 4.655490 -1.035047 11.881042 -5.730463 -15.239055 14.088740 3.457260 2.575530 1.603162 5.425583 -4.508919 5.496423 4.371372 0.476292 4.751719 3.219349 -0.597420 -0.828710 -0.526730 18.050822 -10.444685 3.236522 -0.419325 1.974782 -21.810661 2.506798 -2.616468 4.779437 0.387802 -1.833370 3.953737 -0.523140 0.513360 0.027390 -3.476096 -3.259480 -8.258551 10.460577 -10.307021 25.519737 -9.657761 -3.972262 -11.439654 4.249668 -5.570508 -17.963237 -15.039582 3.222681 41.515109 -2.039070 0.530270 17.968670 17.757705 -8.540336 5.811649 43.272830 7.837454 -1.987269 115.972930 45.297946 67.316350 -4.472450 2.895173 0.109580 0.243300 -0.287940 0.056090 -25.286450 16.454047 11.299570 -42.284652 -17.922075 -1.425215 -122.810176 -47.990390 80.842904 3.513342 -0.869663 -0.263270 0.081960 0.352800 0.064370 
0.665150 16.630750 4.657680 -1.086136 11.784235 -7.540321 -15.203391 14.070804 3.420242 2.672405 1.758701 7.049344 -2.998462 5.462950 5.589809 0.440297 4.823941 3.169807 -0.472750 -0.687600 -0.432740 18.076510 -10.604169 3.167024 -0.830259 1.527616 -19.860769 2.713767 -2.782434 5.381917 0.318562 -2.006048 3.868060 -0.422590 0.452380 0.040610 -3.565407 -2.994588 -8.227791 10.273032 -9.546072 26.241639 -9.737420 -3.853492 -9.497653 3.773126 -4.930351 -16.837040 -13.802092 2.538238 42.565244 -2.367690 -0.408880 14.805080 15.348184 -9.381199 5.329955 44.289375 6.402103 -1.811860 108.515399 38.535306 51.572250 -4.352384 3.007303 0.119410 0.219260 -0.249960 0.065990 -22.339982 16.135288 10.547311 -42.181689 -16.764935 -1.287255 -111.240822 -42.113373 60.741173 3.400783 -1.152236 -0.235870 0.089720 0.302020 0.045050 
0.651900 16.610350 4.656110 -1.559293 11.643795 -9.633792 -15.212296 14.148021 3.380377 3.246558 1.811106 8.629187 -1.192066 5.370824 6.955146 0.427974 4.886722 3.110773 -0.341270 -0.532420 -0.326380 18.060608 -10.665317 3.112702 -0.839408 1.288549 -17.775185 3.106746 -3.000727 6.479191 0.230764 -2.144023 3.794970 -0.332750 0.354270 0.038870 -3.529617 -3.035602 -8.191007 9.947517 -8.581262 27.078952 -8.871896 -3.738333 -6.710797 3.699153 -4.631765 -16.064019 -13.533522 2.664555 44.284714 -2.322330 -0.809970 11.394870 13.571042 -9.946781 5.167333 43.251332 7.913973 -1.309636 98.440006 29.119715 33.493106 -4.243308 3.037385 0.159660 0.158240 -0.177620 0.073480 -20.512901 15.959004 9.900670 -41.637548 -17.050906 -1.365726 -98.376459 -33.344005 39.758706 3.305848 -1.352800 -0.200280 0.093690 0.235340 0.022410 
0.619860 16.590900 4.649850 -1.463591 11.761856 -11.502358 -15.241469 14.221978 3.338243 3.277428 1.860586 9.674211 0.470318 5.283939 9.230673 0.396443 4.954851 3.045086 -0.238260 -0.417650 -0.233190 18.019038 -10.758762 3.064892 -0.873884 1.004930 -16.097094 2.912160 -3.175479 7.660236 0.157926 -2.257444 3.727888 -0.263760 0.263970 0.040680 -3.435593 -3.011688 -8.167782 8.603737 -6.750101 27.572943 -7.637834 -3.071762 -3.610220 3.741631 -3.926829 -15.029846 -12.533810 2.018752 46.584344 -2.677570 -1.676100 8.484110 11.094214 -10.348418 4.788721 43.115618 9.986260 -0.233914 88.200743 17.311963 17.803794 -4.174686 3.007444 0.205590 0.103880 -0.113250 0.067300 -18.128945 15.490981 9.148136 -42.348777 -19.356916 -0.218224 -86.664012 -22.036234 22.954983 3.193795 -1.424668 -0.173880 0.098290 0.192450 -0.005740 
0.604640 16.588910 4.635210 -1.462592 11.887171 -12.047368 -15.281292 14.250962 3.242335 2.909754 1.796966 9.229941 2.182618 4.981711 11.346248 0.304720 4.918618 3.028322 -0.168940 -0.342550 -0.162610 17.983215 -10.810044 3.056394 -0.628829 1.138371 -16.191306 2.817024 -3.254169 8.945195 0.136422 -2.275941 3.696309 -0.200960 0.220780 0.043420 -3.330837 -2.927963 -8.113628 7.489779 -5.204873 25.863287 -6.189375 -2.370116 0.807200 3.626745 -2.693821 -13.806409 -9.840617 0.871439 47.644904 -2.997860 -2.115550 6.079130 10.270428 -10.253923 4.320510 42.304957 12.848680 0.954960 81.864543 3.893279 6.078010 -4.216675 2.971970 0.235010 0.088080 -0.083620 0.058110 -17.141405 14.203314 8.253919 -41.573151 -19.719880 0.037040 -79.823517 -10.963921 11.894064 3.124550 -1.462256 -0.175140 0.118160 0.173300 -0.036350 
0.594220 16.581320 4.607200 -1.314983 11.824062 -12.149629 -15.302030 14.270755 3.161047 2.154022 1.687683 8.194625 3.709188 4.598523 13.298182 0.219778 4.846811 3.034821 -0.119420 -0.275210 -0.130210 17.966006 -10.860280 3.053616 -0.116352 1.409324 -17.363482 2.125906 -3.199426 10.645909 0.144298 -2.228620 3.693818 -0.141080 0.219000 0.044490 -3.276059 -2.838039 -8.046745 6.655877 -4.231993 24.738390 -5.325048 -1.849539 2.885894 3.453743 -1.833577 -12.712325 -8.011324 0.130683 47.854273 -2.570200 -2.567140 4.179410 10.302066 -9.168060 3.648151 40.106338 12.876126 1.925267 79.579086 -10.871325 -3.870337 -4.218715 2.947891 0.237080 0.092940 -0.075340 0.061510 -16.795661 12.285552 7.083328 -39.589659 -19.186897 0.273879 -78.669727 2.118907 2.477368 3.048647 -1.530432 -0.178890 0.150990 0.165000 -0.044490 
0.585500 16.566080 4.568290 -0.873106 12.033426 -11.986634 -15.290747 14.277787 3.074541 1.135052 1.488265 6.530633 4.928214 4.221176 15.839815 0.123563 4.816239 3.037092 -0.076560 -0.217800 -0.112470 17.973647 -10.926610 3.050311 -0.269159 1.650318 -19.151672 1.848904 -3.207007 12.309209 0.171811 -2.232432 3.672197 -0.073230 0.247500 0.058610 -3.315141 -2.722415 -7.967730 6.113786 -4.099840 24.296445 -5.536782 -1.961373 3.170022 3.345204 -1.690214 -11.299542 -7.319961 -0.126088 45.829264 -3.139030 -2.214800 2.755360 9.926168 -7.343895 2.508729 38.452953 11.723077 3.051917 83.925748 -24.567624 -13.857384 -4.181446 2.900586 0.208460 0.134160 -0.100150 0.072470 -16.236502 10.067870 5.550558 -37.921789 -17.457192 0.743542 -82.214449 15.630121 -7.254433 2.915748 -1.618441 -0.190240 0.172060 0.162180 -0.049750 
0.581370 16.544160 4.498230 -0.781819 12.175494 -13.083969 -15.320328 14.415328 3.015308 0.843208 1.276436 5.553996 5.559056 4.150955 18.920822 0.061854 5.001604 2.960274 -0.014710 -0.142390 -0.073170 17.941454 -10.879426 3.022557 -0.386961 1.915616 -20.170259 1.650436 -3.279435 14.379302 0.167955 -2.291338 3.628276 0.004330 0.256470 0.072650 -3.232594 -3.006281 -7.878301 5.475190 -4.298073 26.145085 -5.091670 -2.268332 3.338993 3.237177 -2.426594 -10.019326 -8.417644 0.555826 43.332705 -3.930950 -1.363920 0.069630 9.765269 -5.450166 1.558440 36.109623 10.242199 3.463577 92.824070 -34.497391 -25.398083 -4.137874 2.787709 0.206120 0.157350 -0.105060 0.080560 -15.851053 8.573139 4.078633 -36.460555 -15.587828 0.700238 -90.977399 27.059595 -18.963424 2.728493 -1.645165 -0.202980 0.200780 0.154470 -0.065800 
0.578690 16.525760 4.426540 -0.535918 12.747979 -14.160003 -15.356406 14.499321 2.977117 0.596468 1.170156 4.737045 5.440084 4.289132 21.291654 0.010480 5.211595 2.878698 0.048170 -0.060640 -0.053490 17.912569 -10.833978 2.955009 -1.251754 2.087825 -21.360114 1.695847 -3.428009 16.535873 0.157462 -2.404706 3.557102 0.087990 0.281020 0.086760 -3.152183 -3.226166 -7.770285 4.451193 -4.199342 27.570224 -4.390628 -2.380174 4.554649 2.769159 -3.245949 -8.926118 -9.486993 0.975393 40.191005 -3.684210 -1.382510 -2.945910 9.306986 -4.352757 1.032153 33.660613 7.606922 3.161775 106.139269 -38.833331 -38.960124 -4.109325 2.711015 0.199620 0.177170 -0.115320 0.096890 -14.489849 7.971886 2.953626 -35.829294 -12.768935 0.230549 -102.131194 33.894116 -31.847125 2.522940 -1.610368 -0.214470 0.239120 0.152890 -0.067540 
0.578320 16.502470 4.338190 -0.366058 13.551822 -15.160139 -15.323929 14.452182 2.919116 0.468884 0.957968 3.825335 4.796868 4.576533 23.591377 -0.033140 5.428195 2.800763 0.091160 -0.002270 -0.053960 17.953013 -10.883720 2.900621 -2.283214 2.175185 -22.906059 1.777557 -3.725102 19.114414 0.135759 -2.597544 3.467209 0.152530 0.314160 0.087720 -3.275913 -3.086410 -7.666496 4.459702 -4.756584 28.641645 -5.368640 -2.915907 6.864703 2.451518 -3.814131 -8.386487 -10.070079 1.049139 37.858264 -2.828220 -1.894700 -5.434640 8.192711 -4.167237 1.149592 30.302670 5.137629 2.675741 120.880077 -39.155319 -54.551760 -4.095152 2.733163 0.203330 0.190840 -0.128050 0.117630 -12.823551 7.682201 2.481107 -34.037377 -10.168022 -0.484484 -116.463008 36.206953 -47.111189 2.389310 -1.602170 -0.234690 0.288290 0.156490 -0.064410 
